<?xml version="1.0" standalone="no"?>
<!DOCTYPE svg PUBLIC "-//W3C//DTD SVG 20010904//EN"
 "http://www.w3.org/TR/2001/REC-SVG-20010904/DTD/svg10.dtd">
<svg version="1.0" xmlns="http://www.w3.org/2000/svg"
 width="500.000000pt" height="500.000000pt" viewBox="0 0 500.000000 500.000000"
 preserveAspectRatio="xMidYMid meet">

<g transform="translate(0.000000,500.000000) scale(0.100000,-0.100000)"
fill="#000000" stroke="none">
<path d="M2392 4015 c-163 -76 -320 -230 -397 -389 -59 -123 -86 -265 -57
-299 15 -16 14 -17 -1 -11 -9 3 -17 2 -17 -4 0 -5 24 -22 54 -38 35 -18 51
-31 43 -36 -7 -5 -3 -8 12 -8 13 0 22 -3 18 -6 -3 -4 -18 -3 -34 0 -19 5 -23
10 -14 15 9 6 6 10 -12 15 -14 3 -33 9 -44 12 -13 4 -11 0 7 -15 25 -20 25
-21 3 -21 -20 0 -21 -4 -17 -50 2 -27 8 -60 13 -72 8 -21 10 -22 16 -4 5 11 3
21 -6 27 -22 13 5 33 36 25 24 -6 27 -26 4 -26 -6 0 -7 5 -4 10 3 6 -4 10 -16
10 -22 0 -22 0 5 -29 16 -16 23 -31 18 -35 -6 -3 -12 2 -15 11 -3 15 -6 14
-16 -8 -7 -14 -39 -40 -72 -58 -144 -79 -260 -196 -315 -315 -28 -62 -42 -165
-27 -203 5 -15 8 5 8 60 0 73 4 90 34 152 43 88 174 221 279 283 80 46 87 49
95 28 4 -10 -18 -29 -68 -61 -135 -84 -250 -215 -289 -328 -20 -59 -21 -156
-2 -202 19 -45 13 -44 -19 2 -30 45 -34 34 -4 -13 39 -64 209 -157 355 -194
105 -27 293 -28 384 -2 96 28 148 53 154 77 5 17 8 18 16 5 7 -11 10 4 10 50
0 36 7 76 15 90 13 23 13 20 10 -42 -3 -38 0 -70 5 -73 10 -6 15 26 12 73 0
14 3 20 10 16 8 -5 9 -1 4 12 -4 10 -4 15 1 11 4 -5 9 -27 10 -50 2 -30 0 -38
-7 -27 -8 13 -10 12 -10 -2 0 -10 2 -18 5 -18 20 0 117 79 110 90 -12 20 50 0
130 -41 50 -26 101 -50 115 -54 14 -3 -20 16 -75 43 -124 63 -138 72 -125 92
8 12 20 9 77 -22 75 -41 209 -88 245 -87 13 0 -10 9 -51 19 -70 19 -196 74
-233 102 -11 8 -15 18 -10 26 7 9 24 5 75 -18 90 -40 98 -37 15 6 -38 19 -68
38 -68 44 0 20 20 18 86 -10 38 -16 76 -29 84 -29 8 0 -20 14 -63 30 -59 23
-77 35 -74 47 3 18 6 18 47 9 22 -6 22 -5 -3 5 -34 15 -32 44 3 40 22 -2 23
-1 7 10 -9 8 -13 18 -9 25 6 9 21 9 66 -3 32 -8 63 -13 69 -11 6 2 -17 9 -51
17 -67 14 -75 19 -63 38 6 10 18 10 52 3 24 -6 55 -10 69 -10 14 1 5 5 -20 10
-83 16 -90 18 -84 34 5 12 21 14 78 11 70 -5 62 -1 -22 10 -27 3 -42 10 -39
17 2 8 47 14 133 17 l129 6 -122 2 c-116 2 -123 3 -123 22 0 19 7 20 108 22
l107 2 -104 3 c-101 4 -103 4 -97 26 3 12 6 29 6 38 0 13 15 18 68 23 37 4 84
11 104 17 26 7 44 6 58 -1 25 -13 26 -27 3 -33 -10 -2 1 -3 24 -2 22 0 47 6
55 13 12 9 15 9 15 -3 0 -23 -27 -42 -82 -58 -27 -9 -43 -16 -34 -16 9 -1 41
8 72 18 32 11 57 19 58 18 13 -35 -2 -50 -76 -73 -22 -7 -32 -13 -23 -13 10
-1 40 8 69 19 42 17 54 18 67 8 13 -11 14 -11 8 0 -9 15 12 45 25 36 17 -10
-33 -66 -75 -85 -23 -10 -35 -19 -28 -19 7 0 31 9 54 21 46 24 81 32 73 18 -4
-5 -11 -6 -17 -3 -6 4 -8 -1 -4 -14 6 -17 -3 -25 -55 -51 -70 -35 -64 -43 7
-10 25 12 60 36 77 53 31 30 31 31 14 3 -10 -15 -15 -32 -12 -36 7 -12 -51
-60 -95 -79 -22 -10 -83 -18 -165 -22 l-130 -7 111 -1 c127 -2 185 11 250 57
36 26 43 28 48 15 8 -22 -52 -79 -100 -94 -19 -7 -33 -14 -31 -17 10 -9 83 29
115 59 29 29 32 30 32 11 0 -47 -70 -103 -161 -127 -30 -8 -44 -15 -32 -15 41
-2 126 38 165 76 43 42 52 27 15 -28 -28 -43 -108 -86 -178 -98 -36 -6 -44 -9
-23 -10 61 -2 133 28 185 78 53 51 62 48 26 -11 -28 -46 -65 -75 -125 -99 -26
-10 -40 -18 -31 -19 30 0 119 52 149 88 35 43 38 37 10 -18 -25 -48 -76 -88
-143 -111 -29 -10 -43 -18 -32 -18 34 -1 108 38 148 77 44 43 48 31 8 -25 -49
-68 -119 -100 -250 -114 l-76 -8 80 4 c44 2 101 11 126 20 83 29 168 119 152
161 -4 11 -3 15 5 10 34 -21 21 241 -19 369 -28 93 -79 194 -134 265 -48 63
-132 140 -152 140 -7 0 -13 5 -13 11 0 7 -10 9 -27 4 -23 -5 -25 -4 -14 9 22
26 -8 20 -52 -10 -41 -27 -77 -39 -77 -24 0 11 35 32 42 25 2 -2 17 7 33 21
21 18 24 24 10 19 -11 -4 -27 -8 -37 -9 -9 -1 -23 -8 -32 -15 -13 -11 -16 -11
-16 0 0 8 -6 5 -15 -7 -8 -10 -15 -14 -15 -8 0 6 7 17 15 24 8 7 15 9 15 5 0
-4 6 -2 14 4 8 6 19 10 26 9 7 -2 15 3 18 11 3 10 0 12 -13 7 -11 -4 -22 -1
-27 6 -6 10 -8 8 -8 -4 0 -10 -5 -18 -11 -18 -6 0 -9 9 -6 20 4 16 -2 22 -31
30 -21 5 -43 10 -49 10 -9 0 -14 27 -15 98 l-2 97 -3 -92 c-3 -85 -6 -93 -23
-93 -18 0 -20 8 -22 73 l-2 72 -3 -67 c-3 -60 -6 -68 -23 -68 -17 0 -20 7 -21
53 0 28 -4 70 -8 92 -6 27 -7 9 -3 -52 4 -81 3 -93 -11 -93 -10 0 -18 12 -21
33 -12 73 -15 79 -12 30 2 -43 0 -52 -16 -56 -13 -4 -18 1 -19 16 -1 17 -2 18
-6 5 -7 -26 -41 -22 -46 5 -4 19 -4 18 -6 -5 -2 -45 -28 -33 -45 20 -14 41
-13 15 0 -30 4 -13 0 -18 -14 -18 -14 0 -22 12 -31 43 -42 144 -152 299 -245
345 -25 13 -46 29 -45 35 0 8 2 8 6 -1 4 -10 8 -10 17 3 10 14 17 13 64 -11
67 -33 133 -108 183 -209 22 -44 37 -69 34 -55 -27 98 -144 245 -220 277 -50
20 -59 43 -18 43 79 0 178 -91 244 -224 22 -45 37 -70 34 -56 -15 54 -78 160
-122 204 -47 46 -114 86 -147 86 -9 0 -14 5 -11 10 3 6 25 10 49 10 82 0 177
-84 242 -215 19 -38 32 -59 28 -45 -33 125 -175 270 -264 270 -16 0 -30 4 -30
9 0 15 38 23 78 18 l37 -6 -40 14 c-22 7 -34 14 -27 14 7 1 20 8 28 16 9 9 36
16 67 16 49 2 50 2 17 9 -30 6 -25 8 29 9 110 2 195 -59 266 -189 42 -79 47
-72 6 9 -36 71 -107 146 -164 171 -61 28 -148 26 -215 -5z m-170 -214 c11 32
111 -38 172 -121 41 -55 96 -170 111 -232 6 -24 4 -28 -14 -28 -12 0 -21 6
-21 14 0 8 -21 56 -47 107 -35 71 -63 111 -114 162 -37 37 -74 67 -82 67 -9 0
-19 10 -22 21 -6 17 -9 19 -16 8 -5 -8 -9 -9 -9 -3 0 20 14 25 26 9 8 -11 13
-12 16 -4z m-38 -47 c3 -8 2 -12 -4 -9 -6 3 -10 10 -10 16 0 14 7 11 14 -7z
m84 -24 c22 -16 59 -53 81 -82 43 -58 111 -192 111 -220 0 -40 -28 -13 -70 69
-32 64 -64 108 -117 162 -70 71 -88 101 -60 101 8 0 32 -13 55 -30z m-158 -15
c0 -8 -2 -15 -4 -15 -2 0 -6 7 -10 15 -3 8 -1 15 4 15 6 0 10 -7 10 -15z m17
-7 c-3 -8 -6 -5 -6 6 -1 11 2 17 5 13 3 -3 4 -12 1 -19z m33 -11 c0 -5 -4 -5
-10 -2 -5 3 -10 14 -10 23 0 15 2 15 10 2 5 -8 10 -19 10 -23z m32 4 c6 18 64
-25 111 -83 32 -39 117 -184 117 -199 0 -4 -6 -9 -14 -12 -10 -4 -28 17 -57
66 -23 40 -73 104 -111 143 -37 39 -68 77 -68 85 0 12 2 12 9 0 7 -11 9 -11
13 0z m-125 -33 c-3 -8 -6 -5 -6 6 -1 11 2 17 5 13 3 -3 4 -12 1 -19z m20 0
c-3 -8 -6 -5 -6 6 -1 11 2 17 5 13 3 -3 4 -12 1 -19z m33 -6 c0 -15 -2 -15
-10 -2 -13 20 -13 33 0 25 6 -3 10 -14 10 -23z m17 -14 c-3 -7 -5 -2 -5 12 0
14 2 19 5 13 2 -7 2 -19 0 -25z m44 -7 c19 28 141 -121 183 -222 15 -35 15
-37 -4 -32 -10 3 -36 33 -58 67 -21 33 -62 86 -90 117 -29 31 -51 65 -51 75 1
18 2 18 6 0 4 -15 7 -16 14 -5z m-134 -23 c-3 -7 -5 -2 -5 12 0 14 2 19 5 13
2 -7 2 -19 0 -25z m20 0 c-3 -7 -5 -2 -5 12 0 14 2 19 5 13 2 -7 2 -19 0 -25z
m20 -10 c-3 -7 -5 -2 -5 12 0 14 2 19 5 13 2 -7 2 -19 0 -25z m30 -10 c-3 -7
-5 -2 -5 12 0 14 2 19 5 13 2 -7 2 -19 0 -25z m-90 -20 c-3 -8 -6 -5 -6 6 -1
11 2 17 5 13 3 -3 4 -12 1 -19z m20 -10 c-3 -7 -5 -2 -5 12 0 14 2 19 5 13 2
-7 2 -19 0 -25z m100 10 c-3 -8 -6 -5 -6 6 -1 11 2 17 5 13 3 -3 4 -12 1 -19z
m-80 -20 c-3 -7 -5 -2 -5 12 0 14 2 19 5 13 2 -7 2 -19 0 -25z m224 -105 c23
-34 38 -66 35 -72 -3 -5 -1 -11 6 -13 7 -3 5 -7 -6 -11 -10 -4 -15 -3 -11 3 3
6 2 10 -2 10 -5 0 -30 28 -55 63 -25 34 -55 71 -67 81 -13 11 -21 31 -21 50
l0 30 40 -39 c23 -22 59 -68 81 -102z m-204 95 c-3 -7 -5 -2 -5 12 0 14 2 19
5 13 2 -7 2 -19 0 -25z m24 -15 c-12 -20 -14 -14 -5 12 4 9 9 14 11 11 3 -2 0
-13 -6 -23z m-101 2 c2 19 3 19 7 1 4 -15 7 -16 15 -5 8 12 9 11 5 -1 -6 -23
-41 -19 -44 5 l-3 20 9 -20 10 -20 1 20z m40 -32 c-11 -17 -11 -17 -6 0 3 10
6 24 7 30 0 9 2 9 5 0 3 -7 0 -20 -6 -30z m22 -5 c-8 -8 -9 -4 -5 13 4 13 8
18 11 10 2 -7 -1 -18 -6 -23z m164 -53 c45 -60 54 -78 45 -88 -14 -13 -47 19
-98 95 -22 32 -26 68 -9 68 3 0 31 -34 62 -75z m-140 39 c-4 -9 -9 -15 -11
-12 -3 3 -3 13 1 22 4 9 9 15 11 12 3 -3 3 -13 -1 -22z m-120 -21 c-3 -4 -6
-1 -6 6 0 7 -4 9 -10 6 -6 -4 -7 1 -3 11 6 15 7 15 15 -1 6 -9 7 -19 4 -22z
m42 14 c4 -14 7 -16 13 -5 7 10 9 11 9 0 0 -7 4 -10 10 -7 6 3 7 -1 3 -10 -4
-12 -8 -13 -13 -5 -4 6 -11 11 -16 10 -4 -1 -11 7 -15 17 -7 17 -8 16 -8 -2
-1 -17 -3 -17 -11 -5 -14 21 -12 27 6 27 9 0 19 -9 22 -20z m-38 -37 c1 12 3
11 11 -3 6 -9 14 -15 19 -12 5 3 12 0 16 -6 5 -8 3 -9 -6 -4 -10 6 -12 3 -7
-11 5 -14 2 -12 -13 6 -13 17 -20 20 -20 10 0 -13 -1 -13 -10 0 -5 8 -10 20
-10 25 0 6 5 3 10 -5 9 -13 10 -13 10 0z m245 -60 c16 -22 25 -43 22 -47 -4
-3 1 -11 10 -18 13 -9 13 -14 3 -20 -9 -5 -11 -4 -6 3 4 7 2 12 -4 12 -22 0
-80 74 -80 104 0 34 13 26 55 -34z m-259 4 c-6 16 -4 17 9 6 8 -7 15 -9 15 -4
0 4 15 -7 33 -24 18 -18 37 -29 42 -25 5 5 4 1 -3 -8 -9 -12 -9 -19 1 -29 10
-12 9 -12 -5 -1 -10 7 -16 17 -13 21 2 4 -7 18 -20 30 -25 23 -36 15 -13 -8 7
-7 13 -23 14 -37 1 -23 -1 -23 -25 -10 -14 7 -37 25 -51 40 l-25 28 25 -14
c14 -7 30 -13 35 -14 6 0 10 -6 10 -14 0 -8 5 -16 12 -18 6 -2 10 2 9 10 -2
18 -25 47 -34 45 -16 -3 -42 16 -42 30 0 13 3 12 16 -4 15 -18 15 -18 10 0z
m94 10 c0 -8 -19 -13 -24 -6 -3 5 1 9 9 9 8 0 15 -2 15 -3z m450 -4 c-10 -6
-11 -10 -2 -10 6 0 12 -4 12 -10 0 -5 -6 -10 -14 -10 -12 0 -14 14 -7 38 1 1
7 2 14 2 8 0 7 -4 -3 -10z m87 4 c-3 -3 -12 -4 -19 -1 -8 3 -5 6 6 6 11 1 17
-2 13 -5z m-167 -8 c0 -2 -7 -7 -16 -10 -8 -3 -12 -2 -9 4 6 10 25 14 25 6z
m45 -6 c-3 -5 -12 -10 -18 -10 -7 0 -6 4 3 10 19 12 23 12 15 0z m80 0 c-3 -5
-1 -10 4 -10 6 0 11 -4 11 -10 0 -19 -26 -10 -27 10 -1 11 3 20 8 20 6 0 7 -4
4 -10z m95 6 c0 -2 -7 -6 -15 -10 -8 -3 -15 -1 -15 4 0 6 7 10 15 10 8 0 15
-2 15 -4z m-45 -16 c-3 -5 -10 -10 -16 -10 -5 0 -9 5 -9 10 0 6 7 10 16 10 8
0 12 -4 9 -10z m304 0 c-30 -16 -59 -21 -59 -10 0 6 5 8 10 5 6 -3 10 -2 10 3
0 5 12 10 27 10 17 0 21 -3 12 -8z m-529 -10 c-12 -8 -12 -10 5 -10 16 0 17
-2 5 -10 -9 -6 -17 -5 -22 3 -12 19 -9 27 10 27 14 0 15 -2 2 -10z m60 6 c0
-2 -7 -7 -16 -10 -8 -3 -12 -2 -9 4 6 10 25 14 25 6z m208 -41 c1 -27 -2 -45
-9 -45 -6 0 -9 6 -6 13 2 6 1 24 -4 39 -7 25 -3 38 11 38 4 0 8 -20 8 -45z
m39 39 c-3 -3 -12 -4 -19 -1 -8 3 -5 6 6 6 11 1 17 -2 13 -5z m-479 -61 c-15
-19 -28 -6 -28 29 l0 30 19 -23 c14 -17 16 -28 9 -36z m267 47 c-3 -5 -11 -10
-16 -10 -6 0 -7 5 -4 10 3 6 11 10 16 10 6 0 7 -4 4 -10z m138 -42 c-8 -14
-25 -8 -20 6 3 8 1 17 -6 20 -9 3 -8 7 3 15 12 8 16 6 21 -12 3 -12 4 -25 2
-29z m122 42 c-3 -5 -12 -10 -18 -10 -7 0 -6 4 3 10 19 12 23 12 15 0z m88 -7
c-3 -7 -9 -10 -14 -7 -14 8 -11 21 5 21 8 0 12 -6 9 -14z m107 8 c0 -6 -4 -13
-10 -16 -5 -3 -10 1 -10 9 0 9 5 16 10 16 6 0 10 -4 10 -9z m-634 -10 c-4 -5
-1 -11 6 -13 7 -3 5 -7 -6 -11 -10 -4 -15 -3 -11 3 3 6 0 10 -7 10 -9 0 -9 3
2 10 19 12 23 12 16 1z m44 -1 c-12 -8 -12 -10 5 -10 17 0 17 -2 5 -10 -11 -7
-11 -10 -2 -10 7 0 11 -4 8 -9 -4 -5 0 -12 6 -14 10 -4 10 -6 1 -6 -14 -1 -45
53 -36 63 4 3 11 6 17 6 6 0 4 -5 -4 -10z m110 -22 c0 -5 -8 -8 -17 -8 -15 0
-16 2 -3 10 21 14 -5 13 -31 0 -10 -6 -19 -8 -19 -6 0 3 12 12 27 20 27 14 42
8 43 -16z m75 22 c-3 -5 -10 -10 -16 -10 -5 0 -9 5 -9 10 0 6 7 10 16 10 8 0
12 -4 9 -10z m175 1 c0 -10 -30 -24 -37 -17 -3 3 -2 9 2 15 8 13 35 15 35 2z
m200 -6 c0 -8 -4 -15 -10 -15 -5 0 -10 7 -10 15 0 8 5 15 10 15 6 0 10 -7 10
-15z m-410 -5 c0 -5 -7 -10 -16 -10 -8 0 -12 5 -9 10 3 6 10 10 16 10 5 0 9
-4 9 -10z m80 0 c0 -5 -3 -10 -7 -10 -5 0 -19 -3 -32 -7 -17 -4 -22 -3 -17 6
4 6 11 9 16 6 5 -3 11 -1 15 5 8 13 25 13 25 0z m194 -5 c-4 -8 -1 -15 5 -15
6 0 11 -7 11 -15 0 -8 -4 -15 -9 -15 -5 0 -7 -9 -4 -20 4 -14 0 -20 -11 -20
-13 0 -15 6 -11 28 4 15 8 36 9 47 4 24 5 25 11 25 2 0 2 -7 -1 -15z m103 -7
c-3 -8 -6 -5 -6 6 -1 11 2 17 5 13 3 -3 4 -12 1 -19z m-129 0 c-6 -18 -28 -21
-28 -4 0 9 7 16 16 16 9 0 14 -5 12 -12z m-40 -10 c-3 -7 -13 -15 -24 -17 -16
-3 -17 -1 -5 13 16 19 34 21 29 4z m-378 -2 c0 -2 -7 -7 -16 -10 -8 -3 -12 -2
-9 4 6 10 25 14 25 6z m94 -28 c-3 -4 -11 -8 -17 -8 -7 0 -6 4 3 10 11 7 11
10 2 10 -7 0 -10 5 -6 11 4 8 9 7 15 -2 4 -7 5 -17 3 -21z m86 28 c0 -2 -7 -6
-15 -10 -8 -3 -15 -1 -15 4 0 6 7 10 15 10 8 0 15 -2 15 -4z m75 -6 c-3 -5
-10 -10 -16 -10 -5 0 -9 5 -9 10 0 6 7 10 16 10 8 0 12 -4 9 -10z m312 -12
c-3 -8 -6 -5 -6 6 -1 11 2 17 5 13 3 -3 4 -12 1 -19z m20 0 c-3 -8 -6 -5 -6 6
-1 11 2 17 5 13 3 -3 4 -12 1 -19z m-450 -8 c1 -11 -3 -20 -8 -20 -6 0 -7 5
-4 10 3 6 1 10 -5 10 -6 0 -8 5 -5 10 10 16 21 11 22 -10z m83 10 c0 -5 -7
-10 -15 -10 -8 0 -15 5 -15 10 0 6 7 10 15 10 8 0 15 -4 15 -10z m187 -17 c-9
-9 -20 -13 -24 -9 -4 4 1 14 11 22 25 18 35 8 13 -13z m-227 7 c0 -5 -7 -10
-16 -10 -8 0 -12 5 -9 10 3 6 10 10 16 10 5 0 9 -4 9 -10z m115 0 c-3 -5 -10
-10 -16 -10 -5 0 -9 5 -9 10 0 6 7 10 16 10 8 0 12 -4 9 -10z m495 4 c0 -3
-13 -10 -30 -15 -16 -6 -28 -14 -26 -17 2 -4 -7 -7 -20 -7 -13 0 -24 1 -24 3
0 4 83 42 93 42 4 0 7 -2 7 -6z m-773 -18 c0 -8 -6 -12 -15 -9 -11 5 -11 7 0
14 7 5 13 9 14 9 0 0 1 -6 1 -14z m243 4 c0 -5 -7 -10 -15 -10 -8 0 -15 5 -15
10 0 6 7 10 15 10 8 0 15 -4 15 -10z m108 -20 c0 -19 -4 -30 -13 -30 -9 0 -12
9 -10 28 5 34 4 32 13 32 5 0 9 -13 10 -30z m122 16 c0 -8 -7 -16 -15 -20 -15
-5 -21 14 -8 27 11 12 23 8 23 -7z m-515 -14 c-3 -3 -11 0 -18 7 -9 10 -8 11
6 5 10 -3 15 -9 12 -12z m242 -2 c1 -11 -2 -20 -5 -20 -4 0 -8 9 -9 20 -1 11
2 20 5 20 4 0 8 -9 9 -20z m113 10 c0 -5 -4 -10 -10 -10 -5 0 -10 5 -10 10 0
6 5 10 10 10 6 0 10 -4 10 -10z m493 -10 c-4 -14 -14 -20 -32 -20 -21 0 -23
-2 -11 -11 11 -8 6 -9 -20 -4 -26 5 -31 4 -20 -4 13 -9 13 -11 -1 -11 -8 0
-24 7 -35 16 -10 8 -14 13 -7 10 6 -3 35 0 65 8 29 8 45 15 35 15 -24 1 -11
21 13 21 13 0 17 -5 13 -20z m-712 -11 c8 -16 8 -20 -1 -17 -6 2 -11 7 -10 12
1 5 -4 13 -12 17 -9 6 -9 9 -1 9 7 0 17 -10 24 -21z m76 15 c-3 -3 -12 -4 -19
-1 -8 3 -5 6 6 6 11 1 17 -2 13 -5z m113 -4 c0 -5 -7 -10 -15 -10 -8 0 -15 5
-15 10 0 6 7 10 15 10 8 0 15 -4 15 -10z m110 -5 c0 -8 -7 -15 -15 -15 -26 0
-18 20 13 29 1 1 2 -6 2 -14z m-263 -1 c-3 -3 -12 -4 -19 -1 -8 3 -5 6 6 6 11
1 17 -2 13 -5z m110 -14 c1 -11 -3 -20 -9 -20 -6 0 -8 3 -5 7 4 3 2 12 -4 20
-9 10 -8 13 3 13 7 0 14 -9 15 -20z m263 -10 c-18 -11 -24 -6 -16 16 5 14 9
15 19 5 9 -9 9 -14 -3 -21z m-330 10 c0 -5 -4 -10 -10 -10 -5 0 -10 5 -10 10
0 6 5 10 10 10 6 0 10 -4 10 -10z m138 -15 c0 -14 -4 -25 -9 -25 -5 0 -9 11
-9 25 0 14 4 25 9 25 5 0 9 -11 9 -25z m162 16 c0 -6 -5 -13 -10 -16 -19 -12
0 -26 20 -15 26 14 40 12 40 -5 0 -8 -6 -15 -12 -15 -10 0 -9 -3 1 -9 7 -5 10
-14 7 -20 -9 -14 -56 -15 -56 -1 0 6 8 10 17 10 30 0 6 11 -31 13 -20 2 -36 0
-36 -5 0 -4 -4 -8 -10 -8 -5 0 -10 7 -10 16 0 11 6 15 20 11 24 -6 37 10 21
26 -8 8 -11 8 -11 -2 0 -8 -7 -11 -20 -8 -11 3 -20 1 -20 -4 0 -5 -4 -9 -10
-9 -5 0 -10 7 -10 16 0 9 7 14 18 13 9 -1 24 1 32 4 49 18 60 20 60 8z m367 3
c-3 -3 -12 -4 -19 -1 -8 3 -5 6 6 6 11 1 17 -2 13 -5z m-562 -14 c-3 -5 -10
-10 -16 -10 -5 0 -9 5 -9 10 0 6 7 10 16 10 8 0 12 -4 9 -10z m-615 -10 c12
-8 9 -10 -12 -10 -15 0 -30 5 -33 10 -8 13 25 13 45 0z m545 0 c-3 -5 -10 -10
-16 -10 -5 0 -9 5 -9 10 0 6 7 10 16 10 8 0 12 -4 9 -10z m628 3 c-7 -2 -21
-2 -30 0 -10 3 -4 5 12 5 17 0 24 -2 18 -5z m-1110 -10 c-7 -2 -19 -2 -25 0
-7 3 -2 5 12 5 14 0 19 -2 13 -5z m414 1 c-3 -3 -12 -4 -19 -1 -8 3 -5 6 6 6
11 1 17 -2 13 -5z m213 -4 c0 -5 -7 -10 -15 -10 -8 0 -15 5 -15 10 0 6 7 10
15 10 8 0 15 -4 15 -10z m400 -21 l45 -6 -38 -2 c-34 -1 -97 21 -97 35 0 2 10
-1 23 -8 12 -7 42 -15 67 -19z m-887 -1 c10 -36 -38 -53 -63 -23 -10 12 -10
19 -2 27 8 8 17 5 32 -13 19 -22 20 -22 11 -2 -14 28 -14 33 3 33 7 0 16 -10
19 -22z m377 12 c0 -5 -4 -10 -10 -10 -5 0 -10 5 -10 10 0 6 5 10 10 10 6 0
10 -4 10 -10z m30 0 c0 -5 -4 -10 -10 -10 -5 0 -10 5 -10 10 0 6 5 10 10 10 6
0 10 -4 10 -10z m548 3 c-10 -2 -28 -2 -40 0 -13 2 -5 4 17 4 22 1 32 -1 23
-4z m53 -8 c0 -6 -11 -11 -23 -12 -21 -1 -21 -1 1 4 19 4 21 7 10 15 -10 7
-11 9 -1 6 8 -2 13 -8 13 -13z m-1236 -5 c3 -5 -3 -10 -14 -10 -12 0 -21 5
-21 10 0 6 6 10 14 10 8 0 18 -4 21 -10z m59 -5 c-1 -5 6 -16 15 -23 13 -10
11 -10 -12 0 -18 7 -23 14 -16 19 8 5 4 9 -12 12 l-24 5 25 -1 c14 -1 25 -6
24 -12z m413 9 c-3 -3 -12 -4 -19 -1 -8 3 -5 6 6 6 11 1 17 -2 13 -5z m100 0
c-3 -3 -12 -4 -19 -1 -8 3 -5 6 6 6 11 1 17 -2 13 -5z m173 -8 c0 -11 -19 -15
-25 -6 -3 5 1 10 9 10 9 0 16 -2 16 -4z m526 -33 c-2 -9 -11 -20 -22 -24 -13
-5 -14 -8 -4 -9 19 -1 -29 -29 -50 -29 -8 0 -1 7 15 15 l30 15 -30 -5 -30 -5
28 13 c15 6 25 15 21 18 -3 4 5 4 18 1 18 -4 20 -3 8 6 -11 8 -12 11 -2 11 7
0 10 5 6 12 -4 6 -3 8 4 5 5 -4 9 -15 8 -24z m-1106 2 c10 -13 9 -15 -9 -15
-12 0 -21 6 -21 15 0 8 4 15 9 15 5 0 14 -7 21 -15z m1053 8 c-7 -2 -21 -2
-30 0 -10 3 -4 5 12 5 17 0 24 -2 18 -5z m-988 -33 c3 -5 -1 -10 -9 -10 -8 0
-18 5 -21 10 -3 6 1 10 9 10 8 0 18 -4 21 -10z m940 0 c-11 -5 -29 -9 -40 -9
l-20 0 20 9 c11 5 29 9 40 9 l20 0 -20 -9z m-981 -9 c3 -4 3 -11 0 -14 -8 -8
-34 3 -34 14 0 11 27 12 34 0z m-39 -12 c10 -15 -1 -23 -20 -15 -9 3 -13 10
-10 16 8 13 22 13 30 -1z m105 -6 c0 -11 -51 -33 -61 -27 -17 10 -9 26 11 21
11 -3 20 -1 20 4 0 5 7 9 15 9 8 0 15 -3 15 -7z m748 -24 c-24 -15 -48 -10
-48 10 0 18 3 19 31 9 23 -8 27 -13 17 -19z m290 22 c10 -6 5 -11 -17 -21 -17
-7 -28 -16 -26 -20 3 -5 0 -12 -6 -16 -8 -5 -9 -3 -4 6 6 10 3 12 -11 7 -18
-7 -18 -7 0 8 11 8 23 15 28 15 4 0 7 3 7 8 -4 23 6 28 29 13z m-371 -23 c-3
-8 -6 -5 -6 6 -1 11 2 17 5 13 3 -3 4 -12 1 -19z m20 0 c-3 -8 -6 -5 -6 6 -1
11 2 17 5 13 3 -3 4 -12 1 -19z m389 -4 c-1 -15 -11 -31 -23 -38 -12 -6 -22
-15 -22 -19 1 -5 -3 -12 -7 -15 -4 -4 -4 -1 0 6 4 6 4 12 0 12 -4 0 -15 -6
-24 -12 -9 -7 -5 -2 10 11 14 13 24 27 23 30 -1 3 8 11 20 18 12 7 18 12 14
13 -5 0 -5 5 -2 10 10 16 12 12 11 -16z m-1148 -4 c3 -9 -2 -11 -16 -8 -13 4
-23 0 -26 -9 -3 -8 -10 -11 -16 -8 -5 3 -10 1 -10 -5 0 -6 7 -13 15 -16 21 -9
18 -17 -10 -31 -14 -6 -25 -7 -25 -2 0 5 4 9 8 9 5 0 8 16 7 35 -2 28 1 35 16
35 10 0 21 5 24 11 9 13 27 7 33 -11z m85 3 c8 -7 -34 -32 -45 -26 -15 8 -8
25 7 19 8 -3 15 -1 15 4 0 11 13 13 23 3z m810 -15 l22 -12 -25 -8 c-20 -6
-17 -7 12 -4 34 4 80 -15 68 -28 -7 -6 -127 -26 -162 -26 -21 0 -28 5 -28 20
0 17 7 20 43 22 l42 1 -42 4 c-28 3 -43 9 -43 18 0 24 77 33 113 13z m-858
-28 c15 -22 25 -28 42 -24 15 4 23 2 23 -6 0 -7 -7 -10 -15 -6 -9 3 -15 0 -15
-8 0 -8 7 -16 15 -20 8 -3 15 -1 15 4 0 6 5 10 10 10 21 0 9 -20 -15 -26 -26
-6 -32 -18 -15 -29 6 -3 10 -11 10 -17 0 -6 -3 -8 -6 -5 -4 4 -15 -3 -26 -15
-14 -17 -21 -19 -30 -10 -9 9 -9 12 1 12 12 0 41 23 41 33 0 3 -7 7 -15 11 -8
3 -14 1 -12 -3 3 -13 -17 -15 -21 -2 -2 6 8 13 22 17 32 8 32 14 4 44 -13 14
-23 19 -26 12 -5 -15 -32 -16 -32 -2 0 6 6 10 14 10 8 0 18 5 22 12 5 7 1 9
-12 6 -10 -3 -25 -7 -33 -9 -7 -2 -16 2 -19 10 -3 10 1 13 16 9 12 -3 21 -3
20 1 -4 31 13 27 37 -9z m735 7 c0 -7 -4 -6 -10 3 -8 12 -10 12 -10 1 0 -8 -3
-12 -6 -8 -9 9 6 28 17 22 5 -4 9 -12 9 -18z m-674 1 c4 -7 3 -8 -4 -4 -7 4
-12 2 -12 -3 0 -6 -7 -11 -15 -11 -21 0 -19 18 3 23 9 3 18 5 19 6 1 0 5 -4 9
-11z m1072 -12 c-8 -6 -14 -19 -12 -28 1 -11 -3 -15 -14 -11 -10 4 -13 2 -8
-5 3 -6 2 -13 -3 -16 -5 -4 -8 2 -7 11 2 9 8 19 14 21 7 2 10 8 6 13 -3 5 2
12 10 15 9 3 13 11 9 17 -4 6 -1 7 7 2 10 -6 10 -10 -2 -19z m-1338 -30 c0 -7
-24 -29 -52 -48 -152 -101 -291 -286 -287 -381 1 -14 4 -8 10 15 16 68 70 161
133 226 67 71 181 162 202 162 29 0 12 -29 -42 -71 -125 -96 -235 -246 -249
-339 -4 -25 0 -19 13 20 26 77 84 164 158 237 85 83 142 122 154 103 6 -10 -3
-24 -33 -49 -94 -78 -218 -229 -217 -265 0 -6 15 14 32 44 33 56 150 186 201
222 23 17 31 18 37 7 6 -9 -18 -41 -80 -106 -98 -102 -158 -206 -165 -284 l-4
-44 9 42 c13 63 44 128 94 197 56 78 151 170 165 162 15 -10 14 -33 -2 -39
-27 -10 -141 -164 -176 -237 -32 -67 -36 -83 -36 -157 0 -84 -11 -105 -34 -65
-10 16 -10 16 -11 0 0 -25 -26 -12 -39 20 -6 15 -15 45 -20 67 -6 27 -9 32
-10 15 0 -14 6 -43 14 -65 8 -21 13 -40 12 -42 -8 -7 -29 19 -46 57 -11 25
-21 37 -21 27 0 -10 7 -32 17 -50 15 -30 15 -31 -1 -18 -26 22 -48 69 -62 131
-9 38 -12 46 -13 25 0 -16 8 -55 19 -85 l18 -55 -24 30 c-36 45 -47 90 -42
169 7 102 48 179 152 282 80 80 202 168 218 158 4 -3 8 -11 8 -18z m857 2 c-3
-8 -6 -5 -6 6 -1 11 2 17 5 13 3 -3 4 -12 1 -19z m80 -10 c-3 -7 -5 -2 -5 12
0 14 2 19 5 13 2 -7 2 -19 0 -25z m-60 0 c-3 -8 -6 -5 -6 6 -1 11 2 17 5 13 3
-3 4 -12 1 -19z m40 0 c-3 -8 -6 -5 -6 6 -1 11 2 17 5 13 3 -3 4 -12 1 -19z
m-748 -13 c13 -14 20 -29 17 -33 -4 -4 -13 0 -19 9 -7 8 -20 18 -30 22 -10 4
-15 11 -12 17 9 15 18 12 44 -15z m1198 10 c0 -8 -4 -12 -9 -9 -5 3 -6 10 -3
15 9 13 12 11 12 -6z m-1307 -5 c0 -5 -2 -10 -4 -10 -3 0 -8 5 -11 10 -3 6 -1
10 4 10 6 0 11 -4 11 -10z m92 -40 c27 -27 35 -40 24 -40 -9 0 -16 4 -16 9 0
6 -12 9 -26 8 -18 -1 -30 5 -41 23 -10 16 -10 19 -2 9 20 -22 50 -32 43 -14
-3 7 -12 16 -20 19 -14 5 -20 26 -8 26 4 0 24 -18 46 -40z m63 30 c3 -5 -1
-10 -9 -10 -9 0 -16 5 -16 10 0 6 4 10 9 10 6 0 13 -4 16 -10z m611 -9 c2 -8
1 -8 -3 0 -4 8 -7 8 -13 -1 -5 -9 -9 -8 -13 3 -4 10 0 14 11 13 9 -2 17 -8 18
-15z m21 -13 c-3 -8 -6 -5 -6 6 -1 11 2 17 5 13 3 -3 4 -12 1 -19z m20 0 c-3
-8 -6 -5 -6 6 -1 11 2 17 5 13 3 -3 4 -12 1 -19z m33 7 c0 -8 -4 -15 -10 -15
-5 0 -10 7 -10 15 0 8 5 15 10 15 6 0 10 -7 10 -15z m17 -7 c-3 -8 -6 -5 -6 6
-1 11 2 17 5 13 3 -3 4 -12 1 -19z m20 0 c-3 -8 -6 -5 -6 6 -1 11 2 17 5 13 3
-3 4 -12 1 -19z m417 1 c-3 -5 -10 -7 -15 -3 -5 3 -7 10 -3 15 3 5 10 7 15 3
5 -3 7 -10 3 -15z m-1040 -15 c4 -9 4 -19 1 -22 -3 -3 -5 0 -5 7 0 8 -7 10
-20 6 -12 -4 -20 -2 -20 5 0 6 5 8 10 5 6 -3 10 -1 10 4 0 17 17 13 24 -5z
m494 4 c12 -1 22 -6 22 -11 0 -4 5 -5 10 -2 6 3 10 2 10 -4 0 -5 -9 -9 -20 -8
-11 1 -20 6 -20 12 0 5 -5 3 -10 -5 -7 -11 -10 -11 -10 -2 0 7 -4 10 -10 7 -5
-3 -10 -2 -10 4 0 5 -9 8 -20 6 -11 -2 -22 0 -25 4 -2 5 10 7 28 4 17 -2 42
-5 55 -5z m526 -20 c-3 -5 -12 -4 -20 3 -7 6 -11 15 -8 21 3 5 12 4 20 -3 7
-6 11 -15 8 -21z m43 7 c0 -8 -4 -12 -9 -9 -5 3 -6 10 -3 15 9 13 12 11 12 -6z
m-510 -17 c-3 -8 -6 -5 -6 6 -1 11 2 17 5 13 3 -3 4 -12 1 -19z m49 8 c10 -8
16 -17 13 -21 -4 -3 -14 1 -22 9 -12 12 -17 13 -20 3 -3 -7 -6 -5 -6 6 -1 21
9 22 35 3z m-553 -11 c-3 -9 -8 -14 -10 -11 -3 3 -2 9 2 15 9 16 15 13 8 -4z
m-253 -5 c0 -5 -4 -10 -10 -10 -5 0 -10 5 -10 10 0 6 5 10 10 10 6 0 10 -4 10
-10z m189 -11 c-19 -12 -29 -11 -29 2 0 5 5 7 10 4 6 -3 10 -1 10 5 0 6 5 8
11 4 8 -4 7 -9 -2 -15z m395 8 c3 3 6 1 6 -6 0 -7 5 -9 10 -6 6 3 10 1 10 -4
0 -6 -2 -11 -5 -11 -10 0 -65 30 -65 36 0 2 8 0 19 -5 10 -6 21 -7 25 -4z m73
-9 c-3 -8 -6 -5 -6 6 -1 11 2 17 5 13 3 -3 4 -12 1 -19z m-587 -13 c18 -17 32
-23 48 -19 12 4 19 10 16 15 -9 15 8 10 28 -8 12 -10 18 -12 18 -4 0 7 4 9 10
6 6 -4 5 -11 -3 -20 -6 -7 -14 -11 -16 -10 -6 6 -29 -20 -24 -27 2 -5 0 -8 -6
-8 -16 0 -22 18 -9 23 10 4 9 8 -2 16 -11 8 -17 6 -22 -9 -4 -11 -15 -20 -23
-20 -9 0 -13 -4 -10 -10 7 -11 -8 -14 -18 -4 -9 9 21 36 33 29 17 -10 11 1
-15 29 -13 14 -28 26 -34 26 -5 0 -13 5 -16 10 -12 20 19 9 45 -15z m640 7 c0
-11 -3 -12 -13 -3 -8 6 -17 8 -20 4 -4 -3 -7 -1 -7 5 0 6 9 10 20 9 11 -1 20
-8 20 -15z m17 -14 c-3 -7 -5 -2 -5 12 0 14 2 19 5 13 2 -7 2 -19 0 -25z m33
7 c0 -8 -4 -15 -10 -15 -5 0 -10 7 -10 15 0 8 5 15 10 15 6 0 10 -7 10 -15z
m17 -17 c-3 -7 -5 -2 -5 12 0 14 2 19 5 13 2 -7 2 -19 0 -25z m-747 13 c0 -14
-29 -21 -36 -9 -4 7 -3 8 4 4 7 -4 12 -2 12 3 0 6 5 11 10 11 6 0 10 -4 10 -9z
m199 -25 c-3 -3 -11 5 -18 17 -13 21 -12 21 5 5 10 -10 16 -20 13 -22z m568
12 c-3 -8 -6 -5 -6 6 -1 11 2 17 5 13 3 -3 4 -12 1 -19z m-121 -15 c-10 -10
-19 5 -10 18 6 11 8 11 12 0 2 -7 1 -15 -2 -18z m-616 -4 c0 -6 -4 -7 -10 -4
-5 3 -10 11 -10 16 0 6 5 7 10 4 6 -3 10 -11 10 -16z m551 7 c5 3 9 0 9 -6 0
-6 5 -8 10 -5 12 8 13 -1 1 -42 -8 -26 -6 -35 5 -41 12 -7 13 -16 6 -43 -7
-26 -11 -30 -17 -17 -3 9 -13 14 -21 11 -8 -3 -14 0 -14 6 0 6 -4 10 -9 9 -13
-4 -14 3 -6 35 4 15 11 27 16 27 13 0 11 -18 -3 -26 -7 -5 -5 -11 7 -21 25
-17 46 -17 39 1 -3 8 -12 12 -20 9 -17 -6 -18 9 -2 25 7 7 9 12 5 12 -4 0 -3
9 3 20 8 15 6 21 -11 30 -17 10 -21 8 -26 -9 -4 -17 -8 -18 -23 -8 -10 6 -16
15 -13 20 3 5 9 4 13 -3 6 -9 12 -6 21 11 7 15 14 19 17 11 2 -6 8 -10 13 -6z
m86 -8 c-3 -8 -6 -5 -6 6 -1 11 2 17 5 13 3 -3 4 -12 1 -19z m33 3 c0 -6 -4
-13 -10 -16 -5 -3 -10 1 -10 9 0 9 5 16 10 16 6 0 10 -4 10 -9z m17 -13 c-3
-8 -6 -5 -6 6 -1 11 2 17 5 13 3 -3 4 -12 1 -19z m-715 -6 c-7 -2 -9 -9 -6
-14 4 -7 2 -8 -4 -4 -6 4 -9 13 -6 21 4 8 11 12 17 8 8 -5 7 -8 -1 -11z m184
6 c4 -7 3 -8 -4 -4 -7 4 -12 2 -12 -5 0 -7 -3 -10 -6 -6 -6 5 3 27 11 27 2 0
7 -5 11 -12z m50 0 c4 -7 3 -8 -4 -4 -7 4 -12 3 -12 -1 0 -5 -6 -17 -13 -28
-11 -14 -16 -15 -22 -5 -5 8 -4 11 2 7 6 -4 15 5 21 18 13 28 18 30 28 13z
m501 -10 c-3 -8 -6 -5 -6 6 -1 11 2 17 5 13 3 -3 4 -12 1 -19z m-97 -3 c0 -8
-4 -15 -10 -15 -5 0 -10 7 -10 15 0 8 5 15 10 15 6 0 10 -7 10 -15z m34 -1
c17 -7 22 -34 6 -34 -5 0 -10 5 -10 11 0 5 -4 7 -10 4 -5 -3 -10 1 -10 9 0 18
2 19 24 10z m-701 -16 c2 -7 -14 -33 -35 -57 -106 -121 -160 -236 -162 -343
-1 -56 -4 -68 -17 -68 -22 0 -29 21 -29 83 1 100 61 223 164 334 60 65 71 72
79 51z m172 -14 c-8 -9 -15 -20 -15 -26 0 -6 -10 -3 -21 8 -15 13 -23 15 -26
7 -2 -7 -11 -9 -20 -6 -11 4 -14 2 -9 -5 9 -15 -2 -34 -15 -27 -13 9 8 45 27
45 8 0 12 5 9 10 -8 13 8 13 21 0 12 -12 44 -3 44 12 0 5 5 6 10 3 6 -4 4 -12
-5 -21z m395 -6 c0 -13 -18 -9 -23 5 -4 7 -8 3 -12 -10 -4 -13 -11 -21 -15
-18 -5 3 -3 16 3 29 9 19 14 22 29 12 10 -6 18 -14 18 -18z m40 22 c0 -5 -4
-10 -10 -10 -5 0 -10 5 -10 10 0 6 5 10 10 10 6 0 10 -4 10 -10z m133 -15 c-7
-21 -13 -19 -13 6 0 11 4 18 10 14 5 -3 7 -12 3 -20z m19 -7 c-7 -7 -12 -8
-12 -2 0 6 3 14 7 17 3 4 9 5 12 2 2 -3 -1 -11 -7 -17z m-508 -13 c-9 -14 -18
-25 -21 -25 -5 0 5 18 20 38 17 22 18 13 1 -13z m406 9 c0 -8 -4 -12 -10 -9
-5 3 -10 10 -10 16 0 5 5 9 10 9 6 0 10 -7 10 -16z m30 -9 c0 -8 -4 -15 -10
-15 -5 0 -10 7 -10 15 0 8 5 15 10 15 6 0 10 -7 10 -15z m-660 -9 c0 -8 -21
-43 -48 -78 -76 -101 -122 -212 -122 -295 0 -28 -4 -43 -12 -43 -9 0 -8 -4 2
-10 13 -8 13 -10 -2 -10 -44 0 -48 99 -8 200 49 125 190 299 190 236z m677 -8
c-3 -8 -6 -5 -6 6 -1 11 2 17 5 13 3 -3 4 -12 1 -19z m-575 -6 c-7 -2 -10 -8
-6 -13 6 -10 -9 -13 -19 -3 -9 9 16 33 28 26 5 -3 4 -7 -3 -10z m428 9 c0 -6
-4 -12 -10 -16 -5 -3 -7 -12 -3 -20 3 -8 1 -15 -3 -15 -16 1 -44 27 -44 41 1
9 6 8 16 -6 14 -19 15 -19 20 3 6 21 24 31 24 13z m180 0 c0 -6 -4 -13 -10
-16 -5 -3 -10 1 -10 9 0 9 5 16 10 16 6 0 10 -4 10 -9z m-557 -20 c-6 -3 -17
-19 -25 -34 -13 -25 -16 -27 -28 -13 -11 14 -10 16 5 10 13 -5 16 -4 11 4 -4
7 -2 12 5 12 7 0 10 3 6 6 -8 9 16 33 27 27 4 -3 4 -8 -1 -12z m-123 -14 c0
-7 -15 -33 -33 -59 -44 -61 -97 -178 -103 -225 -4 -31 -2 -29 11 14 22 80 117
253 138 253 22 0 13 -33 -27 -103 -24 -43 -52 -108 -61 -145 -9 -37 -19 -73
-21 -79 -5 -19 -42 -15 -47 5 -4 13 -5 11 -6 -5 0 -13 -7 -23 -13 -23 -9 0 -8
-4 2 -10 8 -5 11 -10 5 -10 -30 0 -38 19 -32 79 7 85 76 226 150 308 20 22 37
22 37 0z m157 -2 c-9 -7 -14 -15 -10 -18 3 -4 1 -7 -6 -7 -7 0 -9 -4 -6 -10 3
-5 1 -10 -5 -10 -6 0 -9 -4 -5 -9 3 -5 -4 -12 -15 -16 -11 -4 -18 -11 -14 -16
3 -5 -10 -50 -30 -98 -20 -49 -36 -94 -36 -100 0 -9 -31 -31 -44 -31 -3 0 -6
8 -7 18 -1 17 -20 -32 -21 -55 -1 -7 -6 -13 -12 -13 -6 0 -4 -5 4 -10 12 -8
12 -10 1 -10 -10 0 -11 -3 -2 -14 9 -11 9 -16 0 -22 -7 -4 -9 -3 -5 4 3 6 -2
15 -11 21 -14 8 -15 10 -3 11 13 0 13 1 0 10 -12 8 -12 10 -1 10 11 0 11 3 1
15 -17 21 -4 81 37 167 54 113 73 141 88 128 11 -9 6 -26 -25 -88 -21 -42 -41
-90 -45 -107 -4 -16 9 5 28 48 41 91 63 126 83 134 7 3 11 9 8 14 -3 5 0 9 6
9 6 0 8 5 5 10 -3 6 -1 10 5 10 6 0 9 4 5 9 -3 5 4 12 15 16 11 4 17 11 14 17
-5 7 -2 8 6 3 10 -6 10 -11 -3 -20z m463 10 c0 -8 -4 -15 -10 -15 -5 0 -10 7
-10 15 0 8 5 15 10 15 6 0 10 -7 10 -15z m-415 -4 c3 -5 2 -12 -3 -15 -5 -3
-9 1 -9 9 0 17 3 19 12 6z m215 -1 c0 -5 -4 -10 -10 -10 -5 0 -10 5 -10 10 0
6 5 10 10 10 6 0 10 -4 10 -10z m230 -1 c0 -5 6 -7 13 -3 6 4 8 3 4 -1 -13
-15 -37 -14 -37 1 0 8 5 14 10 14 6 0 10 -5 10 -11z m-176 -50 c-9 -15 -24
-10 -24 8 0 22 -16 6 -22 -22 -5 -19 -5 -19 -13 -1 -5 12 -3 21 6 27 8 5 10 9
6 9 -5 0 -5 4 -2 10 4 6 15 4 30 -6 14 -9 22 -20 19 -25z m69 -6 c-5 -14 -8
-13 -20 3 -7 10 -13 14 -13 9 0 -5 -5 -4 -11 2 -6 6 -8 16 -5 22 11 17 56 -17
49 -36z m-366 12 c-9 -7 -13 -16 -9 -20 4 -5 1 -5 -7 0 -12 7 -11 10 2 20 9 7
13 16 9 20 -4 5 -1 5 7 0 12 -7 11 -10 -2 -20z m224 12 c-1 -12 -15 -9 -19 4
-3 6 1 10 8 8 6 -3 11 -8 11 -12z m209 -2 c0 -8 -4 -15 -10 -15 -5 0 -10 7
-10 15 0 8 5 15 10 15 6 0 10 -7 10 -15z m30 1 c0 -3 -4 -8 -10 -11 -5 -3 -10
-1 -10 4 0 6 5 11 10 11 6 0 10 -2 10 -4z m-250 -42 c0 -8 -4 -14 -10 -14 -5
0 -10 9 -10 21 0 11 5 17 10 14 6 -3 10 -13 10 -21z m133 2 c14 -13 28 -22 31
-20 3 2 4 1 2 -2 -2 -3 -6 -4 -9 -2 -2 2 -12 -3 -21 -11 -9 -8 -16 -10 -15 -5
4 21 -2 34 -13 32 -6 -2 -14 5 -16 15 -5 24 10 21 41 -7z m57 13 c0 -5 5 -7
10 -4 6 3 10 2 10 -3 0 -5 -11 -9 -25 -9 -15 0 -25 5 -25 13 0 8 7 14 15 14 8
0 15 -5 15 -11z m-230 -13 c0 -3 -5 -17 -10 -32 -8 -19 -14 -24 -21 -17 -8 8
-7 17 0 32 10 18 31 30 31 17z m109 -13 c-1 -10 -4 -29 -8 -43 -10 -35 -24 -8
-16 30 7 32 26 42 24 13z m-257 0 c-6 -2 -10 -9 -7 -14 4 -5 -1 -6 -10 -2 -13
5 -14 7 -3 14 7 5 18 8 23 8 6 0 4 -3 -3 -6z m218 -19 c0 -8 -4 -14 -9 -14
-11 0 -22 26 -14 34 9 9 23 -3 23 -20z m-275 -12 c-9 -40 -59 -148 -74 -159
-40 -31 -38 -9 11 100 17 37 37 67 45 67 8 0 11 5 7 12 -4 6 -3 8 4 4 6 -3 9
-14 7 -24z m243 3 c13 -13 21 -29 17 -35 -10 -16 -25 -12 -25 8 0 14 -2 15
-10 2 -13 -21 -31 0 -24 28 8 28 13 27 42 -3z m107 7 c0 -18 -20 -15 -23 4 -3
10 1 15 10 12 7 -3 13 -10 13 -16z m-310 -30 c-7 -41 -35 -91 -54 -102 -27
-14 -27 -3 0 61 12 27 28 49 36 49 8 0 11 5 7 12 -4 6 -3 8 4 4 6 -3 9 -14 7
-24z m36 1 c-10 -4 -10 -7 -1 -13 9 -5 5 -14 -11 -29 -14 -12 -25 -17 -27 -11
-5 15 26 60 41 59 8 0 8 -2 -2 -6z m332 -9 c-7 -3 -9 -13 -6 -22 4 -14 3 -14
-5 -2 -12 16 -7 30 11 29 9 0 9 -2 0 -5z m-39 -39 c-4 -8 -8 -15 -10 -15 -2 0
-4 7 -4 15 0 8 4 15 10 15 5 0 7 -7 4 -15z m26 -15 c0 -5 -5 -10 -11 -10 -5 0
-7 5 -4 10 3 6 8 10 11 10 2 0 4 -4 4 -10z m-73 -30 c-1 -21 -12 -26 -22 -10
-3 6 -1 10 5 10 6 0 8 5 5 10 -3 6 -2 10 4 10 5 0 9 -9 8 -20z m36 -10 c-3
-11 -9 -20 -14 -20 -4 0 -7 9 -6 20 1 11 7 20 13 20 7 0 10 -8 7 -20z m-193
-158 c-9 -14 -10 -11 -6 17 3 18 7 59 8 90 2 51 2 49 5 -17 2 -42 -1 -79 -7
-90z m150 128 c0 -5 -4 -10 -10 -10 -5 0 -10 5 -10 10 0 6 5 10 10 10 6 0 10
-4 10 -10z m-172 -31 c-3 -8 -7 -3 -11 10 -4 17 -3 21 5 13 5 -5 8 -16 6 -23z
m202 21 c0 -5 -5 -10 -11 -10 -5 0 -7 5 -4 10 3 6 8 10 11 10 2 0 4 -4 4 -10z
m-214 -85 c1 -31 -2 -57 -6 -60 -5 -3 -6 5 -3 17 4 19 3 20 -7 8 -9 -12 -10
-10 -5 13 3 17 2 26 -4 23 -5 -3 -7 3 -4 15 4 16 8 17 14 7 14 -21 11 8 -2 35
-10 18 -9 20 2 9 8 -7 14 -36 15 -67z m175 62 c-1 -12 -15 -9 -19 4 -3 6 1 10
8 8 6 -3 11 -8 11 -12z m-335 -46 c-9 -10 -13 -21 -9 -26 5 -4 3 -5 -4 -2 -6
4 -10 13 -9 20 3 21 17 38 27 31 6 -4 4 -13 -5 -23z m61 14 c0 -6 -6 -12 -12
-12 -6 0 -12 6 -12 12 0 6 6 12 12 12 6 0 12 -6 12 -12z m37 -3 c3 -5 -1 -9
-9 -9 -8 0 -12 4 -9 9 3 4 7 8 9 8 2 0 6 -4 9 -8z m-208 -23 c1 -5 3 -10 4
-11 7 -9 5 -60 -3 -65 -6 -4 -7 -1 -2 7 6 10 4 12 -7 7 -11 -4 -15 0 -13 11 1
9 -2 23 -7 29 -7 9 -5 15 6 19 9 3 13 11 9 18 -3 6 -2 7 3 3 5 -5 10 -13 10
-18z m39 -20 c-3 -15 0 -19 10 -15 9 3 12 -1 10 -15 -2 -10 0 -19 5 -19 10 0
7 -27 -5 -37 -4 -4 -5 -3 -2 3 4 7 0 15 -9 18 -14 5 -14 9 -3 23 12 14 12 16
-2 11 -12 -5 -15 0 -13 20 2 31 3 32 8 32 3 0 3 -9 1 -21z m132 -12 c1 -14 -6
-31 -15 -38 -14 -11 -15 -11 -4 1 16 19 16 35 -1 22 -11 -9 -13 -5 -13 17 0
37 30 36 33 -2z m50 11 c0 -13 3 -32 7 -43 6 -14 5 -16 -2 -6 -8 11 -11 11
-16 0 -3 -8 -3 -3 0 10 4 14 2 21 -4 17 -5 -3 -13 1 -16 10 -3 8 -2 12 4 9 6
-3 13 1 16 9 8 22 12 20 11 -6z m-337 -2 c-1 -5 4 -13 12 -17 7 -5 9 -9 3 -9
-5 0 -17 5 -25 10 -13 9 -13 10 0 10 13 0 13 1 0 11 -10 7 -11 9 -2 7 8 -2 13
-7 12 -12z m230 -11 c-10 -12 -10 -15 0 -15 8 0 10 -3 7 -6 -3 -4 -2 -15 3
-25 7 -12 6 -20 -2 -25 -7 -4 -10 -4 -6 0 3 4 -3 17 -14 28 -19 19 -19 21 -2
39 20 22 32 26 14 4z m-273 -11 c-3 -3 -12 -4 -19 -1 -8 3 -5 6 6 6 11 1 17
-2 13 -5z m-90 -10 c-3 -3 -12 -4 -19 -1 -8 3 -5 6 6 6 11 1 17 -2 13 -5z m40
0 c-3 -3 -12 -4 -19 -1 -8 3 -5 6 6 6 11 1 17 -2 13 -5z m104 -12 c-7 -2 -18
1 -23 6 -8 8 -4 9 13 5 13 -4 18 -8 10 -11z m-46 -2 c3 -5 2 -10 -4 -10 -5 0
-13 5 -16 10 -3 6 -2 10 4 10 5 0 13 -4 16 -10z m335 -4 c0 -2 -8 -10 -17 -17
-16 -13 -17 -12 -4 4 13 16 21 21 21 13z m-275 -24 c-3 -3 -11 0 -18 7 -9 10
-8 11 6 5 10 -3 15 -9 12 -12z m-40 -2 c3 -6 -1 -7 -9 -4 -18 7 -21 14 -7 14
6 0 13 -4 16 -10z"/>
<path d="M3270 3040 c-8 -5 -10 -10 -5 -10 6 0 17 5 25 10 8 5 11 10 5 10 -5
0 -17 -5 -25 -10z"/>
<path d="M1766 2565 c-3 -9 -6 -22 -5 -28 0 -7 5 -1 10 12 5 13 8 26 5 28 -2
2 -6 -3 -10 -12z"/>
<path d="M1752 2500 c0 -14 2 -19 5 -12 2 6 2 18 0 25 -3 6 -5 1 -5 -13z"/>
<path d="M1802 2390 c0 -19 2 -27 5 -17 2 9 2 25 0 35 -3 9 -5 1 -5 -18z"/>
<path d="M2240 2840 c0 -5 5 -10 10 -10 6 0 10 5 10 10 0 6 -4 10 -10 10 -5 0
-10 -4 -10 -10z"/>
<path d="M2145 2330 c3 -5 11 -10 16 -10 6 0 7 5 4 10 -3 6 -11 10 -16 10 -6
0 -7 -4 -4 -10z"/>
<path d="M2317 2333 c-4 -3 -7 -11 -7 -17 0 -6 5 -5 12 2 6 6 9 14 7 17 -3 3
-9 2 -12 -2z"/>
<path d="M2545 3991 c58 -26 131 -103 170 -180 40 -78 46 -76 9 3 -14 30 -42
73 -62 97 -39 45 -116 99 -141 99 -9 0 2 -9 24 -19z"/>
<path d="M2441 3981 c88 -17 168 -90 227 -206 39 -75 42 -64 5 13 -54 110
-166 204 -239 201 -27 -1 -27 -2 7 -8z"/>
<path d="M2471 3922 c75 -48 134 -132 186 -262 12 -32 13 -32 7 -5 -18 91
-124 244 -196 281 -46 24 -44 16 3 -14z"/>
<path d="M2812 3730 c0 -8 4 -26 8 -40 6 -20 8 -21 8 -5 0 11 -3 29 -8 40 -5
12 -8 14 -8 5z"/>
<path d="M2701 3705 c0 -5 6 -30 13 -55 8 -25 15 -36 15 -25 -1 21 -27 98 -28
80z"/>
<path d="M2761 3705 c1 -5 7 -41 15 -80 l14 -70 -5 57 c-4 46 -24 126 -24 93z"/>
<path d="M2832 3630 c0 -19 2 -27 5 -17 2 9 2 25 0 35 -3 9 -5 1 -5 -18z"/>
<path d="M2611 3625 c0 -5 6 -30 13 -55 8 -25 15 -36 15 -25 -1 21 -27 98 -28
80z"/>
<path d="M2671 3604 c0 -11 3 -14 6 -6 3 7 2 16 -1 19 -3 4 -6 -2 -5 -13z"/>
<path d="M2682 3560 c0 -14 2 -19 5 -12 2 6 2 18 0 25 -3 6 -5 1 -5 -13z"/>
<path d="M2582 3540 c0 -8 4 -26 8 -40 6 -20 8 -21 8 -5 0 11 -3 29 -8 40 -5
12 -8 14 -8 5z"/>
<path d="M2642 3495 c0 -16 2 -22 5 -12 2 9 2 23 0 30 -3 6 -5 -1 -5 -18z"/>
<path d="M3118 2933 c6 -2 18 -2 25 0 6 3 1 5 -13 5 -14 0 -19 -2 -12 -5z"/>
<path d="M2997 2923 c18 -2 50 -2 70 0 21 2 7 4 -32 4 -38 0 -55 -2 -38 -4z"/>
<path d="M3208 2783 c7 -3 16 -2 19 1 4 3 -2 6 -13 5 -11 0 -14 -3 -6 -6z"/>
<path d="M3085 2770 c-19 -5 -6 -6 35 -3 36 3 67 7 69 9 8 7 -73 2 -104 -6z"/>
<path d="M3198 2723 c6 -2 18 -2 25 0 6 3 1 5 -13 5 -14 0 -19 -2 -12 -5z"/>
<path d="M3058 2713 c23 -2 61 -2 85 0 23 2 4 4 -43 4 -47 0 -66 -2 -42 -4z"/>
<path d="M2895 2640 c11 -5 27 -9 35 -9 9 0 8 4 -5 9 -11 5 -27 9 -35 9 -9 0
-8 -4 5 -9z"/>
<path d="M2958 2623 c7 -3 16 -2 19 1 4 3 -2 6 -13 5 -11 0 -14 -3 -6 -6z"/>
<path d="M3003 2613 c9 -2 23 -2 30 0 6 3 -1 5 -18 5 -16 0 -22 -2 -12 -5z"/>
<path d="M3135 2610 l-90 -6 85 -1 c47 -1 96 3 110 7 29 9 28 9 -105 0z"/>
<path d="M2890 2590 c8 -5 22 -9 30 -9 10 0 8 3 -5 9 -27 12 -43 12 -25 0z"/>
<path d="M2955 2570 c11 -5 29 -8 40 -8 16 0 15 2 -5 8 -34 11 -60 11 -35 0z"/>
<path d="M3033 2553 c9 -2 23 -2 30 0 6 3 -1 5 -18 5 -16 0 -22 -2 -12 -5z"/>
<path d="M3108 2543 c17 -2 47 -2 65 0 17 2 3 4 -33 4 -36 0 -50 -2 -32 -4z"/>
<path d="M2975 2510 c11 -5 29 -8 40 -8 16 0 15 2 -5 8 -34 11 -60 11 -35 0z"/>
<path d="M3058 2493 c12 -2 30 -2 40 0 9 3 -1 5 -23 4 -22 0 -30 -2 -17 -4z"/>
<path d="M2978 2453 c7 -3 16 -2 19 1 4 3 -2 6 -13 5 -11 0 -14 -3 -6 -6z"/>
<path d="M3018 2443 c6 -2 18 -2 25 0 6 3 1 5 -13 5 -14 0 -19 -2 -12 -5z"/>
<path d="M2522 2420 c0 -14 2 -19 5 -12 2 6 2 18 0 25 -3 6 -5 1 -5 -13z"/>
<path d="M3103 2433 c26 -2 68 -2 95 0 26 2 4 3 -48 3 -52 0 -74 -1 -47 -3z"/>
<path d="M3108 2373 c23 -2 59 -2 80 0 20 2 1 4 -43 4 -44 0 -61 -2 -37 -4z"/>
<path d="M2965 2340 c11 -5 27 -9 35 -9 9 0 8 4 -5 9 -11 5 -27 9 -35 9 -9 0
-8 -4 5 -9z"/>
<path d="M3033 2323 c9 -2 23 -2 30 0 6 3 -1 5 -18 5 -16 0 -22 -2 -12 -5z"/>
<path d="M990 1589 l0 -211 128 4 c138 3 179 17 201 65 26 56 0 132 -49 148
-19 6 -18 8 10 32 24 20 30 33 30 65 0 89 -35 108 -200 108 l-120 0 0 -211z
m232 134 c22 -20 23 -51 1 -75 -13 -14 -31 -18 -90 -18 l-73 0 0 55 0 55 72 0
c52 0 76 -4 90 -17z m20 -183 c10 -12 18 -28 18 -35 0 -7 -8 -23 -18 -35 -16
-20 -31 -24 -100 -28 l-82 -5 0 68 0 68 82 -5 c69 -4 84 -8 100 -28z"/>
<path d="M1518 1737 c-15 -34 -56 -128 -92 -209 l-65 -148 38 0 c35 0 38 3 58
50 l22 51 107 -3 106 -3 18 -45 c16 -41 21 -45 54 -48 20 -2 36 0 36 5 0 4
-39 99 -87 210 l-88 202 -40 1 c-40 0 -40 -1 -67 -63z m106 -106 c20 -45 36
-85 36 -87 0 -2 -36 -4 -79 -4 l-80 0 24 55 c14 30 31 71 40 91 8 20 17 35 20
33 2 -3 20 -42 39 -88z"/>
<path d="M1810 1770 l0 -30 70 0 70 0 0 -180 0 -180 35 0 35 0 0 180 0 180 65
0 65 0 0 30 0 30 -170 0 -170 0 0 -30z"/>
<path d="M2318 1737 c-15 -34 -56 -128 -92 -209 l-65 -148 38 0 c35 0 38 3 58
50 l22 51 107 -3 106 -3 18 -45 c16 -41 21 -45 54 -48 20 -2 36 0 36 5 0 4
-39 99 -87 210 l-88 202 -40 1 c-40 0 -40 -1 -67 -63z m106 -106 c20 -45 36
-85 36 -87 0 -2 -36 -4 -79 -4 l-80 0 24 55 c14 30 31 71 40 91 8 20 17 35 20
33 2 -3 20 -42 39 -88z"/>
<path d="M2660 1590 l0 -210 35 0 35 0 0 53 c0 49 3 56 40 92 36 35 41 37 52
22 7 -9 38 -50 68 -91 54 -74 56 -75 99 -76 33 0 41 3 34 13 -5 6 -45 61 -87
120 -90 124 -92 96 19 217 l59 65 -39 3 c-38 3 -42 0 -141 -105 l-103 -108 -1
108 0 107 -35 0 -35 0 0 -210z"/>
<path d="M3090 1658 c0 -163 13 -207 71 -249 29 -21 46 -24 114 -24 68 0 85 3
114 24 58 42 71 86 71 249 l0 142 -34 0 -35 0 -3 -144 c-3 -128 -5 -148 -24
-173 -44 -58 -140 -55 -181 6 -21 31 -23 45 -23 172 l0 139 -35 0 -35 0 0
-142z"/>
<path d="M3560 1590 l0 -210 35 0 35 0 1 158 0 157 68 -135 c91 -183 91 -183
179 -3 l67 138 3 -157 3 -158 29 0 30 0 0 210 0 210 -43 0 -42 0 -69 -137 -68
-138 -69 138 -69 137 -45 0 -45 0 0 -210z"/>
<path d="M1873 1186 c-37 -32 -39 -99 -4 -127 33 -27 67 -33 101 -19 35 14 41
36 8 25 -60 -19 -108 6 -108 57 0 52 53 83 100 58 12 -6 21 -7 25 -1 3 6 -3
15 -14 20 -33 18 -78 13 -108 -13z"/>
<path d="M2140 1120 l0 -90 50 0 c58 0 68 17 13 22 l-38 3 -3 78 c-4 108 -22
97 -22 -13z"/>
<path d="M2415 1198 c-52 -30 -62 -99 -19 -139 55 -52 154 -16 154 57 0 46 -9
63 -41 79 -33 18 -67 19 -94 3z m92 -30 c30 -28 29 -63 -3 -94 -29 -30 -67
-27 -96 8 -25 28 -22 55 7 83 30 31 62 32 92 3z"/>
<path d="M2690 1145 c0 -57 3 -69 26 -92 21 -21 32 -24 62 -19 20 3 43 13 49
23 15 20 18 153 3 153 -6 0 -10 -28 -10 -65 0 -58 -3 -66 -25 -81 -21 -14 -31
-15 -50 -6 -23 11 -25 17 -25 82 0 56 -3 70 -15 70 -12 0 -15 -14 -15 -65z"/>
<path d="M2990 1120 l0 -90 40 0 c88 0 139 46 125 112 -10 44 -49 68 -111 68
l-54 0 0 -90z m120 50 c20 -20 26 -65 12 -86 -11 -18 -48 -34 -76 -34 -25 0
-26 2 -26 70 l0 70 35 0 c22 0 43 -8 55 -20z"/>
</g>
</svg>
